<?xml version="1.0" encoding="UTF-8" standalone="no"?>
<!-- Created with Inkscape (http://www.inkscape.org/) -->

<svg
   xmlns:dc="http://purl.org/dc/elements/1.1/"
   xmlns:cc="http://creativecommons.org/ns#"
   xmlns:rdf="http://www.w3.org/1999/02/22-rdf-syntax-ns#"
   xmlns:svg="http://www.w3.org/2000/svg"
   xmlns="http://www.w3.org/2000/svg"
   xmlns:sodipodi="http://sodipodi.sourceforge.net/DTD/sodipodi-0.dtd"
   xmlns:inkscape="http://www.inkscape.org/namespaces/inkscape"
   width="64.977646mm"
   height="11.874979mm"
   viewBox="0 0 64.977646 11.874979"
   version="1.1"
   id="svg8"
   inkscape:version="0.92.2 (5c3e80d, 2017-08-06)"
   sodipodi:docname="logo.svg">
  <defs
     id="defs2" />
  <sodipodi:namedview
     id="base"
     pagecolor="#ffffff"
     bordercolor="#666666"
     borderopacity="1.0"
     inkscape:pageopacity="0.0"
     inkscape:pageshadow="2"
     inkscape:zoom="2.8"
     inkscape:cx="294.90842"
     inkscape:cy="29.204251"
     inkscape:document-units="mm"
     inkscape:current-layer="layer1"
     showgrid="false"
     inkscape:window-width="1366"
     inkscape:window-height="705"
     inkscape:window-x="-8"
     inkscape:window-y="-8"
     inkscape:window-maximized="1" />
  <metadata
     id="metadata5">
    <rdf:RDF>
      <cc:Work
         rdf:about="">
        <dc:format>image/svg+xml</dc:format>
        <dc:type
           rdf:resource="http://purl.org/dc/dcmitype/StillImage" />
        <dc:title></dc:title>
      </cc:Work>
    </rdf:RDF>
  </metadata>
  <g
     inkscape:label="Layer 1"
     inkscape:groupmode="layer"
     id="layer1"
     transform="translate(-27.533858,-165.23204)">
    <g
       id="g1557"
       transform="matrix(1.5804325,0,0,1.5804325,-15.981549,-95.906052)">
      <text
         id="text1368"
         y="172.64244"
         x="50.581615"
         style="font-style:normal;font-variant:normal;font-weight:normal;font-stretch:normal;font-size:10.58333302px;line-height:1.25;font-family:Righteous;-inkscape-font-specification:Righteous;letter-spacing:0px;word-spacing:0px;opacity:1;fill:#000000;fill-opacity:1;stroke:none;stroke-width:0.26458332"
         xml:space="preserve"><tspan
           style="stroke-width:0.26458332"
           y="172.64244"
           x="50.581615"
           id="tspan1366"
           sodipodi:role="line">Dev</tspan></text>
      <path
         inkscape:connector-curvature="0"
         id="path1432"
         d="m 29.232083,169.66824 c -0.605909,-0.16267 -1.117748,-0.57032 -1.400701,-1.11558 -0.202589,-0.39039 -0.251143,-0.5922 -0.249171,-1.03567 0.0016,-0.33166 0.01474,-0.42258 0.09689,-0.66487 0.213895,-0.6307 0.681212,-1.12644 1.292635,-1.37127 0.344916,-0.13811 0.584409,-0.16829 1.337773,-0.16858 l 0.659821,-2.5e-4 v 0.73499 0.73499 l -0.69323,7.9e-4 c -0.780989,8e-4 -0.872553,0.0216 -1.065829,0.24173 -0.140298,0.15979 -0.188753,0.3224 -0.172434,0.57867 0.01786,0.28055 0.138076,0.46135 0.392539,0.59039 0.179985,0.0913 0.185658,0.0919 0.860067,0.0919 h 0.678887 v 0.71829 0.71828 l -0.776753,-0.002 c -0.573874,-0.002 -0.824744,-0.0151 -0.960499,-0.0515 z"
         style="opacity:1;fill:#d45500;fill-opacity:1;stroke:#ffffff;stroke-width:0.09659583;stroke-miterlimit:4;stroke-dasharray:none;stroke-dashoffset:0;stroke-opacity:1;paint-order:markers fill stroke" />
      <path
         inkscape:connector-curvature="0"
         id="path1434"
         d="m 31.270013,171.97769 v -0.71765 l 0.09187,-0.0198 c 0.278786,-0.06 0.4958,-0.22751 0.591312,-0.4565 0.06379,-0.15294 0.06703,-0.42627 0.0067,-0.5701 -0.103793,-0.24769 -0.374181,-0.4583 -0.588383,-0.4583 h -0.101557 v -0.73499 -0.73499 l 0.108579,5.3e-4 c 0.214125,0.001 0.572736,0.10027 0.855986,0.23661 0.236857,0.11401 0.339055,0.19013 0.573098,0.42686 0.459663,0.46493 0.649324,0.92818 0.644559,1.57433 -0.0031,0.41661 -0.09279,0.73852 -0.305718,1.09693 -0.175297,0.29507 -0.556339,0.65516 -0.864203,0.81668 -0.259257,0.13602 -0.67713,0.25796 -0.88401,0.25796 h -0.128291 z"
         style="opacity:1;fill:#ffd42a;fill-opacity:1;stroke:#ffffff;stroke-width:0.09659583;stroke-miterlimit:4;stroke-dasharray:none;stroke-dashoffset:0;stroke-opacity:1;paint-order:markers fill stroke" />
      <path
         inkscape:connector-curvature="0"
         id="path1436"
         d="m 27.995961,171.97705 v -0.71828 h 1.486688 1.486686 v 0.71828 0.71829 h -1.486686 -1.486688 z"
         style="opacity:1;fill:#37c837;fill-opacity:1;stroke:#ffffff;stroke-width:0.09659583;stroke-miterlimit:4;stroke-dasharray:none;stroke-dashoffset:0;stroke-opacity:1;paint-order:markers fill stroke" />
      <path
         inkscape:connector-curvature="0"
         id="path1438"
         d="m 30.991406,166.09711 v -0.73499 h 0.952148 0.952148 v 0.73499 0.735 h -0.952148 -0.952148 z"
         style="opacity:1;fill:#00aad4;fill-opacity:1;stroke:#ffffff;stroke-width:0.09659583;stroke-miterlimit:4;stroke-dasharray:none;stroke-dashoffset:0;stroke-opacity:1;paint-order:markers fill stroke" />
      <path
         inkscape:connector-curvature="0"
         id="path1440"
         d="m 34.477247,169.00368 v -3.69166 h 0.868627 0.868624 v 0.73499 0.73499 h -0.150339 -0.150338 v 1.48669 1.48668 h 0.150338 0.150339 v 0.735 0.73499 h -0.150339 -0.150338 v 0.73499 0.73499 h -0.718286 -0.718288 z"
         style="opacity:1;fill:#6600ff;fill-opacity:1;stroke:#ffffff;stroke-width:0.09659583;stroke-miterlimit:4;stroke-dasharray:none;stroke-dashoffset:0;stroke-opacity:1;paint-order:markers fill stroke" />
      <path
         inkscape:connector-curvature="0"
         id="path1442"
         d="m 36.515179,170.49489 v -0.73952 h 0.581673 c 0.469199,0 0.619397,-0.0118 0.776753,-0.0609 0.532887,-0.16635 0.919954,-0.62232 1.019104,-1.20052 0.109236,-0.637 -0.249979,-1.29675 -0.864532,-1.58784 l -0.226763,-0.10741 -0.643118,-0.0109 -0.643117,-0.0109 v -0.73664 -0.73664 l 0.676523,0.0171 c 0.754666,0.0191 0.994066,0.0638 1.437122,0.2685 0.334682,0.15463 0.566404,0.316 0.837726,0.58337 0.287137,0.28295 0.421479,0.46525 0.587785,0.79764 0.232326,0.46433 0.286367,0.71722 0.284615,1.33189 -0.0013,0.50958 -0.0065,0.5494 -0.107741,0.85276 -0.32545,0.97504 -1.110017,1.71101 -2.105784,1.97534 -0.202377,0.0537 -0.401389,0.0721 -0.933723,0.0862 l -0.676523,0.018 z"
         style="opacity:1;fill:#55d400;fill-opacity:1;stroke:#ffffff;stroke-width:0.09659583;stroke-miterlimit:4;stroke-dasharray:none;stroke-dashoffset:0;stroke-opacity:1;paint-order:markers fill stroke" />
      <path
         inkscape:connector-curvature="0"
         id="path1444"
         d="m 41.259211,169.00368 v -3.69166 h 0.08352 0.08352 v 3.69166 3.69166 h -0.08352 -0.08352 z"
         style="opacity:1;fill:#cdef47;fill-opacity:1;stroke:#ffffff;stroke-width:0.09659583;stroke-miterlimit:4;stroke-dasharray:none;stroke-dashoffset:0;stroke-opacity:1;paint-order:markers fill stroke" />
      <path
         inkscape:connector-curvature="0"
         id="path1446"
         d="m 41.726933,169.00368 v -3.69166 h 0.501132 0.501128 v 3.69166 3.69166 h -0.501128 -0.501132 z"
         style="opacity:1;fill:#c8b7b7;fill-opacity:1;stroke:#ffffff;stroke-width:0.09659583;stroke-miterlimit:4;stroke-dasharray:none;stroke-dashoffset:0;stroke-opacity:1;paint-order:markers fill stroke" />
      <path
         inkscape:connector-curvature="0"
         id="path1448"
         d="m 44.132358,169.00368 v -3.69166 l 0.776753,5.3e-4 0.776754,5.3e-4 0.409641,0.70406 0.409641,0.70406 -0.0087,1.30647 -0.0087,1.30647 -0.409604,-0.70216 c -0.225285,-0.38619 -0.431522,-0.73113 -0.458308,-0.76653 -0.04281,-0.0566 -0.04883,0.23176 -0.04976,2.38281 l -0.0011,2.44719 H 44.85069 44.132402 Z"
         style="opacity:1;fill:#00ffcc;fill-opacity:1;stroke:#ffffff;stroke-width:0.09659583;stroke-miterlimit:4;stroke-dasharray:none;stroke-dashoffset:0;stroke-opacity:1;paint-order:markers fill stroke" />
      <path
         inkscape:connector-curvature="0"
         id="path1450"
         d="m 47.631576,171.28382 -0.826304,-1.41152 -1.09e-4,-1.31685 c -6.1e-5,-0.72428 0.0051,-1.3106 0.01146,-1.30294 0.0063,0.008 0.383915,0.65286 0.839007,1.43379 0.455093,0.78093 0.848288,1.44188 0.873765,1.46879 0.03951,0.0417 0.04632,-0.31056 0.04632,-2.39708 v -2.44599 h 0.317384 0.317381 v 3.69166 3.69166 h -0.376299 -0.376298 z"
         style="opacity:1;fill:#442178;fill-opacity:1;stroke:#ffffff;stroke-width:0.09659583;stroke-miterlimit:4;stroke-dasharray:none;stroke-dashoffset:0;stroke-opacity:1;paint-order:markers fill stroke" />
      <path
         inkscape:connector-curvature="0"
         id="path1452"
         d="m 49.511157,169.00368 v -3.69166 h 0.250566 0.250566 v 3.69166 3.69166 h -0.250566 -0.250566 z"
         style="opacity:1;fill:#442178;fill-opacity:1;stroke:#ffffff;stroke-width:0.09659583;stroke-miterlimit:4;stroke-dasharray:none;stroke-dashoffset:0;stroke-opacity:1;paint-order:markers fill stroke" />
    </g>
  </g>
</svg>
